<?xml version="1.0" standalone="no"?><!DOCTYPE svg PUBLIC "-//W3C//DTD SVG 1.1//EN" "http://www.w3.org/Graphics/SVG/1.1/DTD/svg11.dtd"><svg class="icon" width="200px" height="133.33px" viewBox="0 0 1536 1024" version="1.1" xmlns="http://www.w3.org/2000/svg"><path d="M632.50133333 499.232h272.448v-33.696H632.50133333v33.6z m609.6-458.016H869.33333333l33.504 136.896 319.296 69.6c29.088 6.72 51.36 31.488 51.36 62.88v345.792c-2.208 31.392-22.272 56.16-51.36 62.88l-319.296 69.6-33.6 136.896h373.056c129.504 0 236.64-105.504 236.64-237.984v-410.88C1476.62933333 146.72 1371.70133333 41.216 1242.19733333 41.216zM313.30133333 719.264a64.8 64.8 0 0 1-51.36-62.88V310.592c2.208-31.392 22.272-56.16 51.36-62.88l319.296-69.6 33.504-136.896H295.25333333A235.584 235.584 0 0 0 58.61333333 276.8v408.672c0 130.176 107.136 237.984 236.736 237.984h370.56L632.59733333 786.56 313.20533333 719.36z"  /></svg>