<?xml version="1.0" standalone="no"?><!DOCTYPE svg PUBLIC "-//W3C//DTD SVG 1.1//EN" "http://www.w3.org/Graphics/SVG/1.1/DTD/svg11.dtd"><svg class="icon" width="200px" height="159.63px" viewBox="0 0 1283 1024" version="1.1" xmlns="http://www.w3.org/2000/svg"><path d="M64.306333 909.111579a57.633035 57.633035 0 1 0 0 114.50774h1154.227909a57.633035 57.633035 0 1 0 0-114.50774z m0-454.289869a57.633035 57.633035 0 1 0 0 114.50774h650.292742a57.633035 57.633035 0 1 0 0-114.50774z m1209.333179 76.894602a26.794306 26.794306 0 0 0 2.47721-37.663694c-0.657219-0.808885-1.668325-1.668325-2.47721-2.527765l-275.324129-240.137644a13.447708 13.447708 0 0 0-22.193774 10.111058v500.800739a13.346598 13.346598 0 0 0 22.193774 10.111059z m-55.10527-416.828396a57.633035 57.633035 0 1 0 0-114.50774H64.306333a57.633035 57.633035 0 1 0 0 114.50774z"  /></svg>