<?xml version="1.0" standalone="no"?><!DOCTYPE svg PUBLIC "-//W3C//DTD SVG 1.1//EN" "http://www.w3.org/Graphics/SVG/1.1/DTD/svg11.dtd"><svg class="icon" width="200px" height="200.00px" viewBox="0 0 1024 1024" version="1.1" xmlns="http://www.w3.org/2000/svg"><path d="M912.580311 116.725389H84.891192c-26.528497 0-47.751295 21.222798-47.751296 47.751295s21.222798 47.751295 47.751296 47.751295h827.689119c26.528497 0 47.751295-21.222798 47.751295-47.751295 5.305699-26.528497-21.222798-47.751295-47.751295-47.751295zM912.580311 461.595855H419.150259c-26.528497 0-47.751295 21.222798-47.751295 47.751295s21.222798 47.751295 47.751295 47.751296h498.735751c26.528497 0 47.751295-21.222798 47.751296-47.751296s-26.528497-47.751295-53.056995-47.751295zM222.839378 350.176166L47.751295 498.735751c-5.305699 5.305699-5.305699 15.917098 0 21.222798l169.782384 148.559586c5.305699 5.305699 10.611399 0 10.611399 0V355.481865c0-5.305699-5.305699-10.611399-10.611399-10.611399l5.305699 5.3057zM912.580311 811.772021H84.891192c-26.528497 0-47.751295 21.222798-47.751296 47.751295s21.222798 47.751295 47.751296 47.751295h827.689119c26.528497 0 47.751295-21.222798 47.751295-47.751295 5.305699-26.528497-21.222798-47.751295-47.751295-47.751295z" /></svg>