<?xml version="1.0" standalone="no"?><!DOCTYPE svg PUBLIC "-//W3C//DTD SVG 1.1//EN" "http://www.w3.org/Graphics/SVG/1.1/DTD/svg11.dtd"><svg class="icon" width="200px" height="200.00px" viewBox="0 0 1024 1024" version="1.1" xmlns="http://www.w3.org/2000/svg"><path d="M736.82488889 267.37777778l-0.11377778-47.78666667C735.232 99.10044445 636.01777778 1.13777778 515.52711111 1.13777778h-1.59288889c-120.37688889 0-219.59111111 97.96266667-221.07022222 218.45333333l-0.11377778 47.78666667c0 23.21066667 18.54577778 42.32533333 41.87022223 42.66666667h0.68266666c23.21066667 0 42.21155555-18.65955555 42.66666667-41.984 0.34133333-18.31822222 0.91022222-40.73244445 1.47911111-47.55911112 0.34133333-1.82044445 0.56888889-3.64088889 0.68266666-5.46133333 3.86844445-71.90755555 62.91911111-128.11377778 134.7128889-128.56888889 71.79377778 0.45511111 130.84444445 56.77511111 134.71288888 128.56888889 0.11377778 1.82044445 0.34133333 3.64088889 0.68266667 5.46133333 0.56888889 6.82666667 1.13777778 29.35466667 1.47911111 47.55911112 0.34133333 23.32444445 19.456 41.984 42.66666667 41.984h0.68266667c23.09688889-0.34133333 41.75644445-19.456 41.75644444-42.66666667zM736.71111111 219.47733333c0 0.11377778 0 0 0 0zM292.75022222 219.59111111c0-0.11377778 0 0 0 0z"  /><path d="M798.94755555 476.50133333c4.89244445 0 8.87466667 3.98222222 8.87466667 8.53333334-0.34133333 63.03288889-0.79644445 133.00622222-1.13777777 150.64177778l-0.22755556 1.25155555-0.11377778 6.03022222c-1.82044445 162.01955555-135.05422222 293.77422222-296.96 293.77422223-163.84 0-297.18755555-133.34755555-297.18755556-297.18755556 0-3.41333333 0.22755555-154.05511111 0.22755556-154.16888889 0-4.89244445 3.98222222-8.87466667 8.87466667-8.87466667h577.64977777m0-85.21955555H221.41155555c-51.99644445 0-94.208 42.09777778-94.208 94.208 0 0-0.22755555 151.32444445-0.22755555 154.16888889 0 211.17155555 171.23555555 382.40711111 382.40711111 382.40711111 209.80622222 0 379.904-168.96 382.29333334-378.08355556 0.68266667-4.77866667 1.47911111-158.49244445 1.4791111-158.49244444 0-52.11022222-42.09777778-94.208-94.208-94.208z"  /><path fill="#333333" d="M512.91022222 618.26844445c7.85066667 0 14.22222222 6.37155555 14.22222223 14.22222222V699.392c0 3.75466667-0.11377778 13.76711111-0.11377778 18.54577778V721.23733333c-0.11377778 7.73688889-6.48533333 14.10844445-14.22222222 14.10844445-7.85066667 0-14.22222222-6.37155555-14.22222223-14.22222223V697.68533333c0-8.30577778 0.11377778-50.85866667 0.11377778-62.12266666V632.37688889c0.11377778-7.73688889 6.48533333-14.10844445 14.22222222-14.10844444m0-42.5528889c-31.17511111 0-56.54755555 25.14488889-56.88888889 56.20622223-0.11377778 0.68266667-0.22755555 67.01511111-0.22755555 67.01511111V721.00977778c0 31.40266667 25.48622222 56.88888889 56.88888889 56.88888889 31.17511111 0 56.54755555-25.14488889 56.88888888-56.20622222 0.11377778-0.68266667 0.22755555-23.552 0.22755556-23.552v-0.34133334-65.30844444c0-31.40266667-25.48622222-56.77511111-56.88888889-56.77511112z"  /></svg>