<?xml version="1.0" standalone="no"?><!DOCTYPE svg PUBLIC "-//W3C//DTD SVG 1.1//EN" "http://www.w3.org/Graphics/SVG/1.1/DTD/svg11.dtd"><svg class="icon" width="200px" height="200.00px" viewBox="0 0 1024 1024" version="1.1" xmlns="http://www.w3.org/2000/svg"><path d="M664.263125 401.97875l237.46125-236.641875-0.81375 134.10375c-0.32625 11.1225 8.66625 20.9315625 19.786875 20.6053125h14.2284375c11.1225-0.3271875 20.44125-6.868125 20.6053125-18.15375l0.6553125-199.6828125c0-0.1640625 0.32625-10.629375 0.32625-10.629375 0.1640625-5.5584375-1.145625-10.629375-4.74375-14.2284375-3.598125-3.598125-8.5003125-5.8865625-14.2284375-5.724375l-10.14 0.1640625c-0.163125 0-0.3225 0-0.4875 0.1640625l-198.04875-0.8203125c-11.1225 0.3271875-20.44125 9.489375-20.6053125 20.77125v14.2284375c1.6378125 13.2459375 12.1003125 20.9334375 23.221875 20.6053125l130.5046875 0.3271875-236.8059375 235.8271875c-10.794375 10.794375-10.794375 28.2909375 0 39.0834375a27.346875 27.346875 0 0 0 39.0871875 0h-0.00375zM364.98125 625.0484375L127.3578125 860.8775l0.8184375-133.455c0.3271875-11.1178125-8.67-20.9278125-19.790625-20.6053125H93.3425c-11.1225 0.3271875-20.44125 6.8690625-20.6053125 18.1546875l-0.6553125 199.846875c0 0.1640625-0.32625 10.629375-0.32625 10.629375-0.1640625 5.565 1.145625 10.629375 4.7390625 14.2284375 3.598125 3.598125 8.5059375 5.8865625 14.2284375 5.724375l10.1390625-0.1640625c0.1640625 0 0.3271875 0 0.4921875-0.1640625l198.8671875 0.819375c11.1178125-0.3271875 20.44125-9.4846875 20.6053125-20.77125v-14.2275c-1.636875-13.2459375-12.103125-20.9334375-23.2265625-20.6053125l-130.505625-0.3271875L403.7375 664.139375c10.794375-10.794375 10.794375-28.2946875 0-39.0871875-10.625625-10.9575-27.96-10.9575-38.75625 0.0009375z m591.2053125 299.769375l-0.49125-199.846875c-0.3271875-11.1234375-9.489375-17.8275-20.60625-18.1546875h-14.2275c-11.1234375-0.3225-19.9528125 9.489375-19.7915625 20.6053125l0.819375 134.1084375-237.624375-236.4815625c-10.794375-10.794375-28.29375-10.794375-39.0871875 0-10.7896875 10.7934375-10.7896875 28.29375 0 39.0871875L861.8234375 899.95625l-130.5046875 0.3271875c-11.1225-0.3271875-21.42375 7.5225-23.225625 20.6053125v14.2284375c0.32625 11.1225 9.489375 20.44125 20.6053125 20.77125l198.0496875-0.819375c0.163125 0 0.32625 0.1640625 0.49125 0.1640625l10.14 0.1640625c5.5575 0.163125 10.629375-1.9621875 14.2275-5.724375 3.598125-3.598125 4.905-8.6653125 4.74-14.2284375 0 0-0.1640625-10.46625-0.1640625-10.629375h0.0046875zM167.264375 127.0690625l130.5046875-0.3271875c11.1178125 0.3271875 21.42-7.5225 23.221875-20.6053125V91.90625c-0.3271875-11.1225-9.4846875-20.44125-20.6053125-20.77125l-199.0275 0.819375c-0.1640625 0-0.3271875-0.1640625-0.4921875-0.1640625l-10.138125-0.1640625c-5.565-0.163125-10.629375 1.9621875-14.2284375 5.724375-3.598125 3.598125-4.9096875 8.6653125-4.7390625 14.2284375 0 0 0.32625 10.46625 0.32625 10.629375l0.4875 199.846875c0.1640625 11.11875 9.489375 17.8275 20.6053125 18.15h15.0478125c11.1225 0.32625 19.951875-9.4846875 19.7859375-20.6053125l-0.654375-133.449375 237.465 235.9921875c10.78875 10.794375 28.29 10.794375 39.0825 0 10.794375-10.794375 10.794375-28.29375 0-39.0871875L167.2634375 127.071875z m0 0z" /></svg>