<?xml version="1.0" standalone="no"?><!DOCTYPE svg PUBLIC "-//W3C//DTD SVG 1.1//EN" "http://www.w3.org/Graphics/SVG/1.1/DTD/svg11.dtd"><svg t="1576660948463" class="icon" viewBox="0 0 1024 1024" version="1.1" xmlns="http://www.w3.org/2000/svg" p-id="1059" xmlns:xlink="http://www.w3.org/1999/xlink" width="200" height="200"><defs><style type="text/css"></style></defs><path d="M507.65892608 1022.00664064c-214.93468843 0-389.80249031-171.74283491-389.80249031-382.86794979L117.85643577 447.72043435l779.5898459 0 0 191.4182565C897.44744448 850.26380573 722.59710749 1022.00664064 507.65892608 1022.00664064L507.65892608 1022.00664064zM832.4972453 511.5564032l-649.67663957 0 0 127.58345159c0 175.90751801 145.72083997 319.06108757 324.83831921 319.06108758 179.10350734 0 324.83831922-143.15356957 324.83831922-319.06108758L832.4972453 511.5564032 832.4972453 511.5564032zM507.98143602 836.39239453c-3.72225138 3.63842219-8.59016875 5.45588679-13.48719389 5.45588678-4.89586119 0-9.79405027-1.81746461-13.51862954-5.45588678l-112.27646521-109.57762902c-7.46196651-7.27218745-7.46196651-19.05950947 0-26.39107641 7.46313159-7.27218745 19.58693547-7.27218745 27.03609515 0l98.7589996 96.3838373 192.59186632-187.87064946c7.47826745-7.33040185 19.55899278-7.33040185 27.00698851 0 7.47710237 7.27218745 7.47710237 19.06067456 0 26.33169693L507.98143602 836.39239453 507.98143602 836.39239453zM702.56890311 246.27293981c0-99.97685191-87.40945123-181.34710499-194.90881308-181.347105-107.4818981 0-194.87854137 81.37141703-194.87854137 181.347105l0 137.65460422-65.00841472 0 0-137.65460422c0-135.17931293 116.58552093-245.19820971 259.88695609-245.19820971 143.30027122 0 259.88812003 110.01889678 259.88812003 245.19820971l0 137.65460422-64.97930695 0L702.56890311 246.27293981 702.56890311 246.27293981z" p-id="1060"></path></svg>