<svg t="1575253454013" class="icon" viewBox="0 0 1024 1024" version="1.1" xmlns="http://www.w3.org/2000/svg" p-id="1195" width="200" height="200"><path d="M965.81818156 80.48484823c0-26.18181844-17.45454563-43.63636406-43.63636312-43.63636312s-43.63636406 17.45454563-43.63636407 43.63636312v113.45454563s-8.72727281 0-8.72727281 8.72727281c-26.18181844-17.45454563-34.90909125-34.90909125-43.63636312-43.63636406C712.72727281 54.30303073 581.81818156 19.39393948 433.45454562 45.57575792 232.72727281 71.75757542 75.63636406 246.30303073 58.18181844 464.48484823c-17.45454563 200.72727281 113.45454562 392.72727281 305.45454562 462.54545438 200.72727281 69.81818156 418.90909125-8.72727281 523.63636313-183.27272719 17.45454563-17.45454563 17.45454563-34.90909125 26.18181844-43.63636312 8.72727281-26.18181844 0-43.63636406-17.45454563-61.09090969-26.18181844-8.72727281-43.63636406-8.72727281-61.09090875 17.45454562-8.72727281 8.72727281-17.45454563 17.45454563-26.18181844 34.90909125C738.90909125 787.39393948 642.90909125 839.75757542 529.45454563 848.48484823c-165.81818156 8.72727281-314.18181844-96-357.81818157-253.09090875C119.27272719 438.30303073 189.09090875 263.75757542 328.72727281 185.21212105c139.63636406-87.27272719 322.90909125-61.09090875 436.36363594 52.36363687 8.72727281 8.72727281 17.45454563 17.45454563 26.18181844 34.90909031H677.81818156c-34.90909125 0-43.63636406 17.45454563-43.63636312 43.63636406s17.45454563 43.63636406 43.63636312 43.63636313h235.63636406c26.18181844 0 43.63636406-17.45454563 43.63636313-43.63636313 8.72727281-69.81818156 8.72727281-157.09090875 8.72727281-235.63636406z" p-id="1196"></path></svg>