<?xml version="1.0" standalone="no"?><!DOCTYPE svg PUBLIC "-//W3C//DTD SVG 1.1//EN" "http://www.w3.org/Graphics/SVG/1.1/DTD/svg11.dtd"><svg class="icon" width="200px" height="200.00px" viewBox="0 0 1024 1024" version="1.1" xmlns="http://www.w3.org/2000/svg"><path d="M698.43244373 373.1030016c-160.76417707 0-287.3851904 110.11795627-287.3851904 245.21168213 0 135.32310187 126.62101333 245.20512853 287.3851904 245.20512854 33.6494592 0 67.58946133-8.4934656 101.38528427-16.96617814l92.68319573 50.76637014-25.41376853-84.443136C934.90926933 761.99471787 985.44080213 694.5210368 985.44080213 618.31359147 985.44080213 483.22095787 850.264064 373.1030016 698.43244373 373.1030016zM605.257728 576.0155648c-16.82418347 0-33.79800747-16.70294187-33.79800747-33.79254613 0-16.85149013 16.973824-33.7969152 33.79800747-33.7969152 25.5557632 0 42.29256533 16.94651733 42.29256533 33.7969152C647.55029333 559.31262293 630.81458347 576.0155648 605.257728 576.0155648zM791.11345493 576.0155648c-16.7051264 0-33.56207787-16.70294187-33.56207786-33.79254613 0-16.85149013 16.85695147-33.7969152 33.56207786-33.7969152 25.32529493 0 42.29584213 16.94651733 42.29584214 33.7969152C833.4082048 559.31262293 816.4376576 576.0155648 791.11345493 576.0155648z"  /><path d="M677.0556928 354.96809813c10.94997333 0 21.7841664 0.78206293 32.5353472 1.98355627-29.23997867-136.14011733-174.784512-237.29384107-340.92591787-237.29384107-185.7421312 0-337.88941653 126.58824533-337.88941653 287.3556992 0 92.83065173 50.61782187 169.00096 135.20841387 228.12317014l-33.7936384 101.64196693 118.11990186-59.22706773c42.26635093 8.35147093 76.17795413 16.96836267 118.35583147 16.96836266 10.6037248 0 21.11679147-0.5308416 31.5457536-1.34785706-6.60056747-22.57496747-10.42896213-46.2323712-10.42896213-70.8018176C389.7819136 474.75370667 516.54929067 354.96809813 677.0556928 354.96809813zM495.37242453 263.33893973c25.4410752 0 42.2969344 16.73243307 42.2969344 42.1462016 0 25.35150933-16.8558592 42.29584213-42.2969344 42.29584214-25.3231104 0-50.73687893-16.94324053-50.73687893-42.29584214C444.6355456 280.0713728 470.04931413 263.33893973 495.37242453 263.33893973zM258.8966912 347.78098347c-25.3231104 0-50.88324267-16.94324053-50.88324267-42.29584214 0-25.41376853 25.56013227-42.1462016 50.88324267-42.1462016 25.32529493 0 42.1789696 16.73243307 42.1789696 42.1462016C301.0756608 330.83774293 284.22198613 347.78098347 258.8966912 347.78098347z"  /></svg>