<?xml version="1.0" standalone="no"?><!DOCTYPE svg PUBLIC "-//W3C//DTD SVG 1.1//EN" "http://www.w3.org/Graphics/SVG/1.1/DTD/svg11.dtd"><svg class="icon" width="200px" height="171.52px" viewBox="0 0 1194 1024" version="1.1" xmlns="http://www.w3.org/2000/svg"><path d="M861.15808625 499.84093437c-43.50520781-9.5967375-22.31241375-34.38830812-22.31241375-34.38830812a117.79994813 117.79994813 0 0 0-8.47711781-130.35567937c-63.25849219-67.9768875-216.96623156 8.79700875-216.96623156 8.79700874-58.78001438 19.19347406-43.18531687-8.79700875-34.868145-57.58042218 0-56.78069438-18.23380031-153.54779344-174.660615-96.76709906S113.41232 447.85860781 113.41232 447.85860781A375.87220312 375.87220312 0 0 0 32.55980937 685.37785156c23.2720875 227.92250625 248.95535531 290.30129719 424.49567157 304.69640344 184.73718937 15.99456188 434.01243562-67.9768875 509.58674062-239.91842813a167.06319844 167.06319844 0 0 0-105.48413531-250.3148925z m-390.34728187 426.25507313c-183.45762469 9.5967375-331.64724-89.56954594-331.64724-220.72495406s148.18961531-236.719515 331.64724-246.3162525 331.96713094 71.97552844 331.96713093 203.93066437-148.58947969 254.31353344-331.96713093 263.11054219z m-36.62754657-379.87084406a183.93746156 183.93746156 0 0 0-163.14453093 207.92930437 104.6844075 104.6844075 0 0 0 49.50316875 88.76981813 203.93066344 203.93066344 0 0 0 275.10646406-52.78205438 158.58608063 158.58608063 0 0 0-161.46510188-243.91706812z m-46.544175 259.91163a51.10262531 51.10262531 0 0 1-62.1388725-47.98368563 68.29677937 68.29677937 0 0 1 59.09990532-66.37743187 53.18191781 53.18191781 0 0 1 65.25781312 51.18259781 68.93656125 68.93656125 0 0 1-62.21884594 63.17851969z m108.76302094-99.16628344a20.79293063 20.79293063 0 0 1-31.98912375-3.19891219 30.06977625 30.06977625 0 0 1 7.99728094-37.58722031 21.03284906 21.03284906 0 0 1 33.98844375 3.19891219 31.98912375 31.98912375 0 0 1-9.5967375 37.58722031z m454.56544688-287.90211281a30.9494775 30.9494775 0 0 0 29.66991281-27.19075594 14.63502375 14.63502375 0 0 0 0-3.19891219c22.47235969-217.52604094-165.94357875-179.93882063-165.94357969-179.93882062a31.26936844 31.26936844 0 0 0-30.14974875 32.78885156 32.46896063 32.46896063 0 0 0 8.79700875 22.39238719 28.07045625 28.07045625 0 0 0 21.35274 9.59673656c135.39396562-31.98912375 105.48413531 113.56138875 105.48413531 113.56138969a31.26936844 31.26936844 0 0 0 30.38966813 31.98912375zM929.05500125 39.99728094a342.76346062 342.76346062 0 0 0-150.98866406 1.59945656c-1.43951062 0-2.79904875 1.59945656-4.15858594 1.59945563a1.43951062 1.43951062 0 0 0-1.03964625 0.79972781 47.02401187 47.02401187 0 0 0-31.98912375 45.58450219 45.42455531 45.42455531 0 0 0 43.98504469 47.18395687 206.08992937 206.08992937 0 0 0 39.98640469-9.59673656 212.32780875 212.32780875 0 0 1 231.44131031 271.90755094 150.18893531 150.18893531 0 0 0-8.71703625 45.58450124 41.34594281 41.34594281 0 0 0 43.82509969 42.38558907 36.62754656 36.62754656 0 0 0 42.22564312-39.98640469c71.97552844-256.71271781-87.97009031-378.2713875-204.65041875-407.06159906z"  /></svg>