<?xml version="1.0" standalone="no"?><!DOCTYPE svg PUBLIC "-//W3C//DTD SVG 1.1//EN" "http://www.w3.org/Graphics/SVG/1.1/DTD/svg11.dtd"><svg class="icon" width="200px" height="200.00px" viewBox="0 0 1024 1024" version="1.1" xmlns="http://www.w3.org/2000/svg"><path d="M560.54518557 706.18074112v97.09036999h97.09036998a48.54518557 48.54518557 0 0 1 0 97.09036999h-97.09036998v48.54518557a48.54518557 48.54518557 0 0 1-97.09037114 0v-439.33392555C298.78954667 492.67901667 172.18370333 391.51084999 172.18370333 269.27407445c0-134.03325667 152.14060999-242.72592555 339.81629667-242.72592668s339.81629667 108.69267001 339.81629667 242.72592668c0 122.2853211-126.60584334 223.45348779-291.2711111 240.29866667V609.09036999h97.09036998a48.54518557 48.54518557 0 0 1 0 97.09037113h-97.09036998z m-48.54518557-339.81629667a97.09036999 97.09036999 0 1 0 0-194.18074112 97.09036999 97.09036999 0 0 0 0 194.18074112z" /></svg>