<?xml version="1.0" standalone="no"?><!DOCTYPE svg PUBLIC "-//W3C//DTD SVG 1.1//EN" "http://www.w3.org/Graphics/SVG/1.1/DTD/svg11.dtd"><svg class="icon" width="200px" height="152.72px" viewBox="0 0 1341 1024" version="1.1" xmlns="http://www.w3.org/2000/svg"><path d="M739.96732531 560.02629687a30.78195094 30.78195094 0 0 1-48.22505531 19.03185094A1042.28346375 1042.28346375 0 0 0 312.03201594 505.3138625a309.11036062 309.11036062 0 0 0-126.37149094 24.09597844A228.91179562 228.91179562 0 0 0 32.04866187 745.148285a222.68920781 222.68920781 0 0 0 148.11745032 214.51378688l2.48241562 0.66197718a19.49523562 19.49523562 0 0 0 18.80015907 7.778235l8.80429968 2.44931625a26.47909687 26.47909687 0 0 0 22.27554 7.08315844 469.27579969 469.27579969 0 0 0 401.4562125-83.11126594 623.58273938 623.58273938 0 0 0 116.50802813-111.21220875 36.40875844 36.40875844 0 0 1 52.52790844-12.04798875q237.84849094 108.56429812 477.68291343 212.79264469A97.27758375 97.27758375 0 0 1 1289.80577937 988.55738656v-215.83774125a95.49024469 95.49024469 0 0 1-14.06702062-3.70707375 15914.26840594 15914.26840594 0 0 0-378.22080469-119.88411281c-30.31856625-9.234585-40.57921688-16.54943531-21.44806875-49.416615a976.74769781 976.74769781 0 0 0 84.5345175-211.83277781c8.24161875-27.5051625 8.27471812-43.19402719-29.35869844-41.57218219-69.50763 3.01199719-139.01526-0.26479125-208.52289093 1.22465813a26.47909687 26.47909687 0 0 1-33.46295907-32.80098188c0.82747219-63.38433937-0.59577937-63.41743781 61.36530844-63.38433844 83.87254031 0 167.81127844-0.43028531 251.55142313 0.29788969 21.11707969 0.19859344 33.59535469-1.621845 33.59535468-28.92841406s-13.63673531-29.09390812-34.15803562-28.99461094c-93.07402688 0.46338375-186.14805375-0.46338375-279.22207969 0.69507656-25.12204312 0.29788969-35.18410031-6.38808188-33.09887156-33.33056437 2.48241562-31.41082875-0.79437281-63.21884438 0.92676844-94.76206875a25.71782344 25.71782344 0 0 0-29.78898469-33.09887156C532.93388469 29.18659625 531.84162219 28.69011313 531.84162219 157.77571156c0 31.34463094-11.45220938 37.03763719-39.15596532 36.40875844-83.87254031-1.45635-167.81127844-0.16549406-251.55142312-0.56268-20.68679437 0-33.6615525 1.91973469-33.42986063 29.39179781s13.23954844 28.76291906 34.09183782 28.56432563c79.96687313-0.76127438 159.96684563-0.66197719 239.90062031-0.23169188C535.15150906 251.67720969 528.53173437 242.21093281 531.84162219 302.68257125c2.01903094 36.87214313-9.26768437 47.16589219-45.77574 45.21305813-61.43150531-3.30988688-123.19399969-0.43028531-184.79099906-0.86057063-19.85932313 0-35.31649594-0.3640875-35.28339751 27.90234844 0 29.39179781 17.27761125 26.47909687 36.11086875 26.47909781 153.38017031-0.19859344 306.79344 0.69507656 460.07431407-0.95986781 34.35662906-0.3640875 40.71161156 9.30078281 27.40586531 39.38765719-17.50930313 39.71864625-34.48902375 79.43729156-49.64830688 120.08270624zM634.44812375 725.78544594c-101.44804125 118.62635531-221.19975844 196.01151656-385.80044625 171.48525281a47.62927594 47.62927594 0 0 0-11.45221031 1.12536188c-15.58956844-6.35498344-31.21223625-12.57757125-46.73560594-19.06495032-95.78813437-40.11583219-128.09263312-143.18571844-67.42240125-216.86380593a404.33581406 404.33581406 0 0 1 39.71864531-37.20313125l22.57343063-12.21348375 11.91559406-4.53454594 2.21762438 0.82747219 1.78733906-1.58874563 7.74513562-2.15142656c151.1294475-23.40090187 289.21793906 20.85228938 424.19513719 81.98590406 28.26643594 12.80926312 11.55150656 26.01571313 1.15846031 38.16299906z m0 0"  /></svg>