<?xml version="1.0" standalone="no"?><!DOCTYPE svg PUBLIC "-//W3C//DTD SVG 1.1//EN" "http://www.w3.org/Graphics/SVG/1.1/DTD/svg11.dtd"><svg class="icon" width="200px" height="200.00px" viewBox="0 0 1024 1024" version="1.1" xmlns="http://www.w3.org/2000/svg"><path d="M772.41813333 955.2896c-29.74933333 0-57.90186667-5.66293333-84.46506666-17.00053333-26.5632-11.33333333-49.76213333-26.9152-69.5936-46.74773334-19.82933333-19.8336-35.4112-43.02826667-46.74666667-69.5904-11.33226667-26.5632-17.00053333-54.7136-17.00053333-84.46933333 0-29.74933333 5.66933333-57.90186667 17.00053333-84.464 11.33546667-26.56213333 26.91946667-49.5872 46.74666667-69.06026667 19.83146667-19.48053333 43.0304-34.88746667 69.5936-46.21973333 26.56213333-11.33546667 54.71466667-17.0016 84.46506666-17.0016 29.75146667 0 57.90506667 5.66613333 84.4672 17.0016 26.5632 11.33226667 49.58186667 26.73813333 69.06133334 46.21973333 19.47946667 19.47626667 34.88426667 42.50133333 46.21866666 69.06026667 11.33226667 26.56213333 17.00266667 54.7136 17.00266667 84.464 0 29.75253333-5.67146667 57.90613333-17.00266667 84.46933333s-26.73813333 49.75573333-46.21866666 69.5904c-19.48053333 19.83466667-42.4992 35.41653333-69.06133334 46.74773334-26.56106667 11.33653333-54.71466667 17.00053333-84.4672 17.00053333v0zM879.72906667 702.42346667h-78.62293334v-73.30986667c0-9.92-3.18293333-18.41706667-9.56053333-25.50293333-6.37546667-7.0816-14.52053333-10.624-24.43946667-10.624-9.9136 0-17.70666667 3.5424-23.37066666 10.624-5.66506667 7.08693333-8.50133333 15.58293333-8.50133334 25.50293333v73.30986667h-69.06133333c-9.9136 0-18.4128 3.53706667-25.49653333 10.62613333-7.08373333 7.08053333-10.62506667 15.584-10.62506667 25.49653333 0 9.9136 3.54133333 17.35466667 10.62506667 22.31466667 7.0848 4.95786667 15.58293333 7.43253333 25.49653333 7.43253333h69.06133333v75.4368c0 9.92 2.83626667 18.41706667 8.50133334 25.49973334 5.664 7.08693333 13.45706667 10.624 23.37066666 10.624 9.91893333 0 18.06293333-3.53813333 24.44053334-10.624 6.37653333-7.08373333 9.56053333-15.57973333 9.56053333-25.49973334v-75.4368h78.62293333v2.128c9.91786667 0 18.416-2.832 25.4976-8.49706666 7.08693333-5.6704 10.62506667-13.46346667 10.62506667-23.37706667 0-9.91253333-3.53813333-18.41706667-10.62506667-25.49653333-7.08053333-7.08906667-15.57973333-10.6272-25.4976-10.6272v0zM617.30133333 437.8688c-2.83413333 11.3312-5.67146667 21.60213333-8.50346666 30.81066667-2.832 7.792-6.37653333 15.76-10.624 23.904-4.25066667 8.14506667-8.85226667 14.34453333-13.81013334 18.59306666-6.37653333 4.95786667-10.80213333 10.272-13.28213333 15.93813334-2.48 5.664-4.608 11.504-6.37653333 17.52746666-1.76853333 6.0224-3.7184 12.21653333-5.84 18.59306667-2.12906667 6.37653333-5.67146667 12.752-10.624 19.12426667-16.29653333 21.248-28.5152 41.792-36.66026667 61.62453333-8.14506667 19.83253333-13.81013333 38.9568-17.00053333 57.376-3.18613333 18.41493333-4.07253333 36.65813333-2.6592 54.7136 1.4176 18.06506667 4.2496 35.59573333 8.5024 52.59413333 2.83306667 12.74666667 7.08266667 26.0288 12.74666666 39.8432 5.6704 13.80906667 13.99253333 27.97866667 24.96746667 42.50026667 10.9792 14.52053333 24.96853333 28.68266667 41.97226667 42.4992 16.99733333 13.81013333 38.24426667 27.09013333 63.74826666 39.8432-17.0016 3.53813333-36.8352 6.72853333-59.49973333 9.5616-19.12746667 2.12906667-42.67626667 4.07146667-70.65173333 5.84-27.97973333 1.77813333-60.03413333 2.6592-96.15573334 2.6592-18.41813333 0-39.8432-0.70613333-64.27946666-2.12266667-24.43946667-1.4176-49.57973333-3.18826667-75.43573334-5.312-25.85066667-2.12693333-51.35466667-4.60586667-76.4992-7.43893333-25.14026667-2.83306667-48.16533333-5.8432-69.06133333-9.03146667-20.8928-3.18506667-38.60373333-6.55253333-53.12426667-10.09386666-14.51626667-3.54026667-23.5488-6.72853333-27.09226666-9.56053334-6.37546667-5.67146667-11.33013333-21.43146667-14.87253334-47.28426666-3.54346667-25.84746667-2.48-59.6736 3.18613334-101.46453334 3.5424-23.37493333 12.92693333-41.2576 28.15466666-53.6576 15.22986667-12.3936 33.11253333-22.13013333 53.6576-29.21706666 20.5376-7.08266667 41.96586667-13.6352 64.2784-19.65653334 22.31253333-6.01813333 41.97013333-14.3392 58.97066667-24.9632 13.45813333-8.50026667 23.72906667-16.47146667 30.8096-23.9072 7.08053333-7.43893333 12.03946667-15.05173333 14.87253333-22.8448 2.83306667-7.78666667 4.25066667-15.93813333 4.25066667-24.4352 0-8.49813333-0.35306667-17.70773333-1.0624-27.62666666-1.41866667-14.87253333-6.54826667-26.56213333-15.4048-35.0592-8.85546667-8.5024-18.24-17.0016-28.15466667-25.49866667-5.67146667-4.2528-10.62506667-10.62293333-14.87786666-19.1264-4.2496-8.49706667-7.78773333-16.6432-10.62506667-24.43413333-3.53813333-9.2096-6.37226667-19.48053333-8.49813333-30.81066667-4.95893333-1.41653333-9.56053333-3.5424-13.80906667-6.37653333-3.54346667-2.832-7.44-7.08693333-11.6896-12.75306667-4.24853333-5.664-8.14506667-14.1632-11.68853333-25.49866667-3.54346667-10.62506667-4.78186667-20.53866667-3.7184-29.74613333 1.06133333-9.2096 3.01333333-17.00053333 5.8464-23.37813333 2.83306667-7.792 6.72853333-14.5216 11.68426666-20.18453334 0-24.08213333 1.4208-48.16533333 4.25493334-72.25173333 2.83306667-20.5376 7.25653333-42.50026667 13.28213333-65.8688 6.01813333-23.37706667 15.76-44.27306667 29.21813333-62.6848 12.74666667-17.71093333 26.38506667-32.23253333 40.90133334-43.5616 14.52053333-11.33546667 29.5744-20.1856 45.15626666-26.56213333 15.58186667-6.37653333 31.16586667-10.80106667 46.74986667-13.28213334 15.57973333-2.4768 30.4576-3.71733333 44.624-3.71733333 18.41493333 0 36.12053333 2.128 53.12213333 6.37653333 17.00053333 4.24746667 32.75946667 9.9136 47.28106667 17.00053334 14.52373333 7.08053333 27.44853333 15.05066667 38.77973333 23.90506666 11.33546667 8.8512 20.54293333 17.8816 27.6256 27.09013334 16.29013333 20.53973333 28.1536 43.20853333 35.59573334 67.9968 7.4336 24.79253333 12.9216 48.16533333 16.46506666 70.12373333 3.54346667 25.49866667 4.96 50.99626667 4.25066667 76.5024 4.2496 3.53813333 7.79306667 7.78666667 10.624 12.7456 2.83093333 4.24853333 4.95893333 9.92 6.37653333 17.00053333 1.4176 7.08053333 1.4176 15.93813333 0 26.56213334-1.4176 13.45813333-4.25066667 24.0832-8.49706666 31.8752-4.25386667 7.79306667-8.85546667 13.80906667-13.81546667 18.06506666-5.67146667 4.9536-11.6928 8.49706667-18.06506667 10.62506667v0z"  /></svg>