<?xml version="1.0" standalone="no"?><!DOCTYPE svg PUBLIC "-//W3C//DTD SVG 1.1//EN" "http://www.w3.org/Graphics/SVG/1.1/DTD/svg11.dtd"><svg class="icon" width="200px" height="200.00px" viewBox="0 0 1024 1024" version="1.1" xmlns="http://www.w3.org/2000/svg"><path fill="#333333" d="M328.727893 327.796053c1.952427 2.822827 61.054293 26.094933 64.109227 23.21408 5.638827-5.31456 52.097707-73.570987 143.581867-59.081387 80.325973 12.721493 101.819733 55.862613 114.804053 104.31488 1.037653 3.877547 9.65632-3.130027 62.047573 4.85376 52.39808 7.983787 127.61088 22.022827 147.74272 80.083627 19.633493 56.623787 5.587627 104.748373-32.22528 128.0512-37.812907 23.30624-69.311147 31.092053-103.45472 17.281707-34.143573-13.817173-62.958933-50.705067-188.48768-149.620053-125.53216-98.90816-194.955947-116.26496-254.436693-128.9216-53.265067-11.332267-135.857493 13.052587-162.21184 32.740693-26.350933 19.69152-57.238187 47.377067-75.88864 92.54912-27.84256 67.433813-13.018453 139.605333-5.423787 155.22816 7.591253 15.619413 9.567573 18.271573 9.567573 18.271573s-5.66272-68.64896 24.203947-104.349013 59.753813-51.217067 89.647787-55.391573c29.89056-4.174507 66.53952-0.856747 92.562773 9.7792 26.023253 10.632533 68.246187 26.46016 103.973547 51.449173 35.730773 24.992427 70.987093 49.145173 105.48224 73.949867 34.495147 24.804693 77.523627 60.381867 118.562133 88.517973 41.035093 28.12928 84.6336 50.674347 138.042027 53.8624 53.408427 3.198293 112.42496-0.566613 159.935147-30.866773 47.506773-30.30016 62.368427-50.008747 74.192213-75.49952 11.8272-25.490773 30.081707-76.653227 25.92768-127.45728-4.160853-50.80064-30.917973-110.10048-89.501013-153.709227-59.439787-44.24704-100.94592-52.57216-131.464533-55.104853-30.5152-2.52928-48.428373 2.290347-50.766507 0.361813-2.024107-1.66912-16.95744-41.007787-48.452267-65.805653-31.494827-24.80128-96.904533-51.346773-142.301867-48.29184-45.02528 3.027627-83.551573 13.12768-116.442453 32.488107C346.95168 273.124693 328.727893 327.796053 328.727893 327.796053L328.727893 327.796053zM151.1424 531.524267c5.061973 2.92864-16.233813 42.40384-4.31104 72.004267 11.91936 29.5936 31.627947 57.873067 62.993067 69.044907 31.368533 11.175253 57.023147 19.749547 94.70976 11.649707 34.69312-7.45472 37.864107-13.274453 45.673813-15.55456s101.338453-17.1008 106.082987-15.11424c4.744533 1.98656 4.020907 2.962773 0.764587 10.120533-3.252907 7.164587-20.988587 45.748907-71.48544 74.632533-36.744533 21.015893-87.00928 36.140373-148.237653 28.033707-61.22496-8.106667-97.3312-23.493973-123.392-55.57248-26.0608-32.08192-38.570667-72.2944-32.314027-107.513173 6.253227-35.21536 19.616427-52.200107 30.37184-59.767467C131.433813 529.8176 151.1424 531.524267 151.1424 531.524267z" /></svg>