<?xml version="1.0" standalone="no"?><!DOCTYPE svg PUBLIC "-//W3C//DTD SVG 1.1//EN" "http://www.w3.org/Graphics/SVG/1.1/DTD/svg11.dtd"><svg class="icon" width="200px" height="200.00px" viewBox="0 0 1024 1024" version="1.1" xmlns="http://www.w3.org/2000/svg"><path fill="#333333" d="M576.013653 282.99264c-0.566613 0.375467-9.065813 1.32096-19.27168 2.07872-21.15584 1.508693-44.772693 5.287253-67.444053 10.9568-22.295893 5.290667-32.68608 8.123733-37.7856 9.63584-57.81504 18.705067-85.58592 29.661867-127.716693 51.008853-17.95072 9.069227-27.774293 14.547627-34.198187 19.083947-2.645333 2.07872-5.4784 3.590827-6.045013 3.590827-1.887573 0-40.2432 26.07104-54.411947 37.02784-64.802133 49.687893-125.637973 124.132693-152.845653 186.852693-3.77856 8.502613-7.744853 27.395413-8.690347 41.18528-2.075307 26.258773 5.481813 47.045973 23.05024 64.426667 9.63584 9.448107 30.98624 21.917013 37.597867 21.917013 1.512107 0 3.39968 0.94208 3.966293 1.890987 0.566613 1.133227 3.590827 1.887573 6.61504 1.887573 3.0208 0 5.853867 0.75776 6.42048 1.69984 0.566613 0.945493 11.905707 2.645333 25.12896 3.966293 31.361707 3.027627 72.925867-0.566613 118.647467-10.19904 8.31488-1.69984 17.19296-3.966293 19.838293-4.727467 2.645333-0.938667 11.147947-3.587413 18.8928-5.853867s15.872-4.724053 17.947307-5.666133c2.07872-0.754347 8.881493-3.39968 15.11424-5.860693 18.8928-6.990507 58.948267-25.31328 47.233707-21.346987-5.85728 1.887573-27.016533 6.232747-53.845333 11.147947-86.528 15.301973-159.645013 13.4144-185.9072-5.29408-9.069227-6.42048-16.247467-19.647147-16.247467-29.846187 0-12.468907 4.345173-21.353813 16.626347-34.38592 13.79328-14.35648 30.60736-26.44992 52.145493-37.40672l17.19296-8.69376 0.566613-27.20768c0.187733-14.91968 1.133227-27.77088 1.887573-28.525227 0.75776-0.566613 6.045013 0 11.71456 1.512107 25.125547 6.611627 37.7856 8.31488 62.91456 8.31488 14.35648 0 29.661867-0.761173 34.00704-1.8944 27.583147-6.232747 36.08576-8.686933 50.633387-14.359893 8.87808-3.587413 23.61344-11.144533 33.061547-16.61952 18.705067-11.33568 21.538133-11.147947 21.538133 0.94208 0 5.4784 0.945493 7.369387 3.77856 8.31488 5.666133 1.887573 7.55712-0.37888 7.55712-9.25696 0-11.147947-3.966293-20.02944-12.847787-27.962027-7.55712-6.802773-20.404907-12.468907-22.67136-10.01472-0.754347 0.754347 1.512107 3.590827 4.911787 6.423893 3.211947 2.833067 6.045013 6.045013 6.045013 7.17824 0 4.724053-33.061547 22.67136-55.732907 30.419627-22.483627 7.55712-31.552853 8.87808-63.290027 8.87808-31.552853 0-54.790827-3.0208-54.790827-7.36256 0-1.13664 9.823573-11.905707 21.917013-23.995733l21.9136-22.104747-5.09952-13.79328c-7.369387-20.026027-7.369387-20.026027-3.403093-21.159253 1.890987-0.566613 14.547627-4.724053 27.962027-9.444693 25.50784-8.881493 50.445653-16.817493 74.62912-23.995733 7.744853-2.266453 16.247467-4.911787 18.8928-5.666133 26.637653-8.881493 110.902613-28.153173 164.93568-37.789013 6.990507-1.32096 12.65664-2.833067 12.65664-3.587413 0-0.75776-5.666133-5.85728-12.468907-11.33568-6.79936-5.4784-11.902293-10.960213-11.523413-12.09344 0.37888-1.32096 3.39968-3.77856 6.61504-5.666133 4.908373-2.833067 7.17824-3.211947 12.09344-1.69984 3.39968 1.133227 15.11424 4.72064 26.07104 7.932587 47.609173 14.17216 76.895573 29.095253 86.14912 43.834027 2.833067 4.532907 6.61504 10.390187 8.69376 13.223253 3.966293 6.045013 4.15744 9.069227 1.32096 18.326187-10.581333 32.68608-34.194773 65.747627-106.366293 148.497067-8.123733 9.260373-16.626347 19.080533-18.8928 21.725867-2.07872 2.645333-9.065813 10.769067-15.49312 17.947307-38.918827 44.588373-53.654187 71.420587-53.654187 97.867093 0 11.902293 0.754347 14.926507 5.4784 22.29248 10.386773 16.626347 35.140267 22.862507 74.437973 18.8928 12.65664-1.32096 26.07104-3.0208 29.661867-3.966293 3.590827-0.945493 14.359893-3.590827 23.61344-5.85728 17.001813-3.966293 27.019947-6.611627 34.00704-9.25696 2.07872-0.754347 9.826987-3.211947 17.005227-5.4784 7.365973-2.266453 14.923093-4.908373 17.001813-5.853867 2.075307-0.945493 7.55712-3.027627 12.281173-4.532907 4.724053-1.512107 21.725867-7.939413 37.7856-14.359893 30.60736-12.09344 31.361707-12.468907 55.732907-23.620267 8.31488-3.775147 21.162667-9.632427 28.340907-12.847787 19.838293-9.065813 89.5488-44.397227 94.081707-47.796907 4.160853-3.024213 4.160853-3.024213-0.566613-1.703253-2.64192 0.761173-5.474987 2.07872-6.611627 2.83648-0.94208 0.754347-6.990507 3.208533-13.223253 5.666133-6.232747 2.266453-13.79328 5.290667-17.005227 6.611627-3.0208 1.512107-9.82016 3.969707-15.11424 5.669547-5.09952 1.69984-11.147947 3.775147-13.226667 4.724053-2.071893 0.945493-9.25696 3.39968-16.052907 5.666133-6.806187 2.269867-13.984427 4.727467-16.059733 5.669547-8.69376 3.775147-63.102293 20.026027-82.18624 24.558933-3.587413 0.94208-10.3936 2.64192-15.11424 3.775147-4.724053 1.133227-12.660053 3.027627-17.95072 3.969707-5.096107 1.133227-13.223253 2.645333-17.947307 3.590827-36.84352 7.932587-94.84288 13.79328-110.15168 11.332267-23.422293-3.587413-22.859093-21.346987 1.512107-53.838507 5.4784-7.369387 11.526827-15.121067 13.4144-17.38752 2.07872-2.07872 6.61504-7.55712 10.202453-12.086613 3.590827-4.539733 17.19296-20.974933 30.22848-36.846933 34.00704-40.997547 36.273493-44.018347 41.373013-51.575467 2.645333-3.77856 5.09952-7.181653 5.860693-7.748267 1.69984-1.32096 19.841707-28.337493 24.75008-37.02784 18.701653-32.873813 23.046827-46.854827 23.046827-73.495893 0.191147-26.07104-3.590827-37.7856-18.326187-56.866133-16.622933-21.917013-58.37824-40.62208-101.26336-45.34272C629.480107 284.125867 576.95232 282.047147 576.013653 282.99264L576.013653 282.99264z" /></svg>