<?xml version="1.0" standalone="no"?><!DOCTYPE svg PUBLIC "-//W3C//DTD SVG 1.1//EN" "http://www.w3.org/Graphics/SVG/1.1/DTD/svg11.dtd"><svg class="icon" width="200px" height="200.00px" viewBox="0 0 1024 1024" version="1.1" xmlns="http://www.w3.org/2000/svg"><path fill="#333333" d="M551.417173 470.603093c0 0 133.430613 0 251.559253 0s235.946667-220.65152 103.437653-353.15712c-152.85248-152.855893-356.324693 5.164373-356.324693 120.050347C550.089387 352.262827 551.417173 470.603093 551.417173 470.603093zM549.154133 555.659947c0 0 0 133.4272 0 251.559253s220.654933 235.943253 353.160533 103.437653c152.85248-152.849067-5.29408-354.986667-120.05376-356.324693C667.501227 552.99072 549.154133 555.659947 549.154133 555.659947zM473.05728 553.396907c0 0-133.423787 0-251.55584 0s-235.946667 220.65152-103.441067 353.15712c152.855893 152.855893 354.986667-5.290667 356.328107-120.050347C475.726507 671.744 473.05728 553.396907 473.05728 553.396907zM292.00384 56.128853c98.12992-0.935253 182.760107 97.071787 182.760107 169.741653 0 118.132053 0.47104 243.397973 0.47104 243.397973s-118.340267 1.32096-233.106773 1.327787c-110.609067 0.006827-182.67136-92.648107-183.231147-161.583787-0.877227-108.373333 0-251.55584 0-251.55584S177.24416 57.22112 292.00384 56.128853z" /></svg>